<svg width="24" height="24" viewBox="0 0 24 24" fill="none" xmlns="http://www.w3.org/2000/svg">
<g clip-path="url(#clip0_13_2)">
<path d="M21.4923 13.9805C21.0339 13.3527 20.7736 12.7234 20.7748 11.9998C20.7736 11.2758 21.0339 10.6477 21.4923 10.0195C21.9518 9.39928 22.6045 8.7847 23.4156 8.29125C22.4691 8.36784 21.5798 8.25394 20.8434 8.02191C20.1036 7.78388 19.5241 7.42692 19.1001 6.84328C18.6753 6.26002 18.513 5.59791 18.5145 4.82039C18.5206 4.04845 18.6881 3.16753 19.0548 2.29153C18.3342 2.90986 17.5479 3.33956 16.8149 3.58331C16.0751 3.82402 15.3964 3.87534 14.7127 3.65236C14.0276 3.43092 13.5093 2.99062 13.0516 2.3617C12.602 1.73433 12.2179 0.923906 11.9998 0C11.7817 0.923906 11.398 1.73433 10.948 2.3617C10.4907 2.99058 9.97162 3.43092 9.28687 3.65236C8.60287 3.87534 7.92454 3.82402 7.18508 3.58331C6.45205 3.33956 5.66582 2.91028 4.94521 2.29153C5.31191 3.16753 5.47907 4.04845 5.48512 4.82039C5.48624 5.59795 5.32443 6.26002 4.8996 6.84328C4.47515 7.42692 3.89605 7.78383 3.15585 8.02191C2.42019 8.25394 1.53093 8.36784 0.584381 8.29125C1.39551 8.78475 2.04819 9.39928 2.50738 10.0195C2.96615 10.6477 3.22607 11.2758 3.22532 11.9998C3.22607 12.7234 2.96615 13.3527 2.50738 13.9805C2.04824 14.6007 1.39551 15.2149 0.584381 15.7087C1.53097 15.6322 2.42019 15.7457 3.15585 15.9778C3.89605 16.2162 4.47515 16.5731 4.8996 17.1568C5.32443 17.7397 5.48624 18.4021 5.48512 19.1801C5.47907 19.9523 5.31191 20.8325 4.94521 21.7085C5.66582 21.0898 6.45201 20.6604 7.18508 20.4167C7.92449 20.1761 8.60287 20.1248 9.28687 20.3477C9.97162 20.5692 10.4907 21.0094 10.948 21.6383C11.3981 22.2661 11.7817 23.0761 11.9998 24C12.2179 23.0761 12.602 22.2661 13.0516 21.6383C13.5093 21.0094 14.0277 20.5691 14.7127 20.3477C15.3967 20.1248 16.0751 20.176 16.8149 20.4167C17.5479 20.6605 18.3342 21.0898 19.0548 21.7085C18.6881 20.8325 18.5206 19.9523 18.5145 19.1797C18.513 18.4021 18.6752 17.7397 19.1001 17.1568C19.5245 16.5731 20.1036 16.2162 20.8434 15.9778C21.5798 15.7457 22.4691 15.6322 23.4156 15.7087C22.6045 15.2149 21.9518 14.6007 21.4923 13.9805ZM11.9998 18.5956C8.35762 18.5956 5.4044 15.6424 5.4044 11.9998C5.4044 8.35725 8.35766 5.40441 11.9998 5.40441C15.6427 5.40441 18.5952 8.35725 18.5952 11.9998C18.5953 15.6424 15.6427 18.5956 11.9998 18.5956Z" fill="white"/>
</g>
<defs>
<clipPath id="clip0_13_2">
<rect width="24" height="24" fill="white"/>
</clipPath>
</defs>
</svg>
