<svg width="24" height="24" viewBox="0 0 24 24" fill="none" xmlns="http://www.w3.org/2000/svg">
<g clip-path="url(#clip0_17_12)">
<path d="M7.69501 22.3939L10.3301 19.6939C9.40938 19.4939 8.53231 19.1293 7.74113 18.6176L7.69501 22.3939Z" fill="white"/>
<path d="M16.305 1.60651L13.6706 4.30613C14.5914 4.50624 15.4685 4.87097 16.2596 5.38276L16.305 1.60651Z" fill="white"/>
<path d="M4.30652 13.6702L1.60614 16.3046L5.38239 16.2589C4.87074 15.4678 4.50626 14.5909 4.30652 13.6702Z" fill="white"/>
<path d="M19.6935 10.3301L22.3939 7.69501L18.6176 7.74113C19.1293 8.53228 19.4937 9.40937 19.6935 10.3301Z" fill="white"/>
<path d="M5.38276 7.74077L1.60651 7.69464L4.30688 10.3298C4.50623 9.40888 4.87074 8.53172 5.38276 7.74077Z" fill="white"/>
<path d="M18.6172 16.2592L22.3935 16.305L19.6931 13.6702C19.4937 14.5911 19.1292 15.4682 18.6172 16.2592Z" fill="white"/>
<path d="M10.3301 4.30614L7.69501 1.60614L7.74113 5.38239C8.53231 4.87072 9.40938 4.50612 10.3301 4.30614Z" fill="white"/>
<path d="M13.6699 19.6939L16.305 22.3935L16.2589 18.6176C15.4676 19.1291 14.5906 19.4937 13.6699 19.6939Z" fill="white"/>
<path d="M5.532 16.4858L4.04437 19.9549L7.51387 18.468C6.74056 17.9305 6.06941 17.2592 5.532 16.4858Z" fill="white"/>
<path d="M18.468 7.5146L19.9549 4.0451L16.4861 5.53198C17.2594 6.06968 17.9306 6.74108 18.468 7.5146Z" fill="white"/>
<path d="M4.125 12C4.125 11.5207 4.17488 11.0535 4.257 10.5971L0.75 11.9996L4.257 13.4021C4.17128 12.9396 4.1271 12.4704 4.125 12Z" fill="white"/>
<path d="M23.25 12L19.743 10.5971C19.8251 11.0535 19.875 11.5207 19.875 12C19.875 12.4796 19.8251 12.9469 19.743 13.4029L23.25 12Z" fill="white"/>
<path d="M7.51464 5.53161L4.04514 4.04474L5.53201 7.51424C6.06989 6.74086 6.74126 6.0695 7.51464 5.53161Z" fill="white"/>
<path d="M16.4854 18.468L19.9549 19.9549L18.468 16.4858C17.9302 17.2591 17.2588 17.9304 16.4854 18.468Z" fill="white"/>
<path d="M13.4025 4.257L12 0.75L10.5975 4.257C11.0531 4.17488 11.5204 4.125 12 4.125C12.4796 4.125 12.9469 4.17488 13.4025 4.257Z" fill="white"/>
<path d="M10.5975 19.743L12 23.25L13.4025 19.743C12.9469 19.8251 12.4796 19.875 12 19.875C11.5204 19.875 11.0531 19.8251 10.5975 19.743Z" fill="white"/>
<path d="M12 19.125C15.935 19.125 19.125 15.935 19.125 12C19.125 8.06497 15.935 4.875 12 4.875C8.06497 4.875 4.875 8.06497 4.875 12C4.875 15.935 8.06497 19.125 12 19.125Z" fill="white"/>
</g>
<defs>
<clipPath id="clip0_17_12">
<rect width="24" height="24" fill="white"/>
</clipPath>
</defs>
</svg>
